<svg width="32" height="32" viewBox="0 0 32 32" fill="none" xmlns="http://www.w3.org/2000/svg">
  <!-- Background circle -->
  <circle cx="16" cy="16" r="16" fill="#14b8a6"/>
  
  <!-- Glass/cup shape -->
  <path d="M8 12h16v12c0 2.2-1.8 4-4 4H12c-2.2 0-4-1.8-4-4V12z" fill="#ffffff" opacity="0.9"/>
  
  <!-- Juice liquid -->
  <path d="M8 12h16v8c0 1.1-0.9 2-2 2H10c-1.1 0-2-0.9-2-2V12z" fill="#f97316"/>
  
  <!-- Straw -->
  <line x1="20" y1="8" x2="22" y2="6" stroke="#ffffff" stroke-width="2" stroke-linecap="round"/>
  
  <!-- Bubbles -->
  <circle cx="10" cy="16" r="1" fill="#ffffff" opacity="0.7"/>
  <circle cx="14" cy="18" r="0.8" fill="#ffffff" opacity="0.5"/>
  <circle cx="18" cy="15" r="0.6" fill="#ffffff" opacity="0.6"/>
  
  <!-- Leaf decoration -->
  <path d="M6 8c2-1 4-1 6 0" stroke="#10b981" stroke-width="1.5" stroke-linecap="round" fill="none"/>
</svg>

